<svg width="501.461" height="56.188" viewBox="0 0 501.461 56.188" xmlns="http://www.w3.org/2000/svg"><g id="svgGroup" stroke-linecap="round" fill-rule="nonzero" font-size="9pt" fill="#ffffff" style="fill:#ffffff"><path d="M 89.557 31.125 L 89.557 55.5 L 79.057 55.5 L 79.057 32.55 Q 79.057 27.6 76.582 24.938 Q 74.107 22.275 69.832 22.275 Q 65.482 22.275 62.97 24.938 Q 60.457 27.6 60.457 32.55 L 60.457 55.5 L 49.957 55.5 L 49.957 13.95 L 60.457 13.95 L 60.457 19.125 Q 62.557 16.425 65.82 14.888 Q 69.082 13.35 72.982 13.35 Q 80.407 13.35 84.982 18.038 A 16.974 16.974 0 0 1 89.486 29.083 A 28.416 28.416 0 0 1 89.557 31.125 Z M 29.032 13.95 L 39.607 13.95 L 39.607 55.5 L 29.032 55.5 L 29.032 50.25 Q 27.007 52.95 23.745 54.488 Q 20.482 56.025 16.657 56.025 Q 11.782 56.025 8.032 53.963 Q 4.282 51.9 2.145 47.888 Q 0.007 43.875 0.007 38.325 L 0.007 13.95 L 10.507 13.95 L 10.507 36.825 Q 10.507 41.775 12.982 44.438 Q 15.457 47.1 19.732 47.1 Q 24.082 47.1 26.557 44.438 Q 29.032 41.775 29.032 36.825 L 29.032 13.95 Z M 224.707 42.375 L 235.282 42.375 Q 235.582 44.775 237.645 46.35 Q 239.707 47.925 242.782 47.925 Q 245.782 47.925 247.47 46.725 Q 249.157 45.525 249.157 43.65 Q 249.157 41.625 247.095 40.613 A 29.991 29.991 0 0 0 242.63 38.988 A 79.401 79.401 0 0 0 240.532 38.4 A 58.908 58.908 0 0 1 233.49 36.299 A 31.073 31.073 0 0 1 232.92 36.075 Q 229.957 34.875 227.82 32.4 Q 225.682 29.925 225.682 25.725 Q 225.682 22.275 227.67 19.425 Q 229.657 16.575 233.37 14.925 Q 237.082 13.275 242.107 13.275 A 19.247 19.247 0 0 1 252.114 15.679 A 14.079 14.079 0 0 1 253.957 16.987 Q 258.382 20.7 258.832 27 L 248.782 27 Q 248.557 24.525 246.72 23.063 Q 244.882 21.6 241.807 21.6 Q 238.957 21.6 237.42 22.65 Q 235.882 23.7 235.882 25.575 Q 235.882 27.675 237.982 28.763 A 25.613 25.613 0 0 0 242.44 30.415 A 64.101 64.101 0 0 0 244.507 30.975 Q 249.007 32.1 251.932 33.3 Q 254.857 34.5 256.995 37.013 Q 259.132 39.525 259.207 43.65 Q 259.207 47.25 257.22 50.1 Q 255.232 52.95 251.52 54.563 Q 247.807 56.175 242.857 56.175 Q 237.757 56.175 233.707 54.338 Q 229.657 52.5 227.295 49.35 Q 224.932 46.2 224.707 42.375 Z M 305.257 27.975 L 293.932 27.975 Q 293.032 25.275 290.895 23.738 Q 288.757 22.2 285.607 22.2 Q 281.107 22.2 278.482 25.463 A 13.343 13.343 0 0 0 275.903 33.18 A 25.044 25.044 0 0 0 275.857 34.725 A 15.91 15.91 0 0 0 277.557 42.537 A 9.852 9.852 0 0 0 278.482 43.913 Q 281.107 47.175 285.607 47.175 Q 291.982 47.175 293.932 41.475 L 305.257 41.475 Q 303.532 48.225 298.432 52.2 Q 293.332 56.175 285.682 56.175 Q 279.682 56.175 275.032 53.513 Q 270.382 50.85 267.757 46.013 Q 265.132 41.175 265.132 34.725 Q 265.132 28.275 267.757 23.438 Q 270.382 18.6 275.032 15.938 Q 279.682 13.275 285.682 13.275 A 20.867 20.867 0 0 1 297.745 16.613 A 17.262 17.262 0 0 1 298.47 17.138 Q 303.532 21 305.257 27.975 Z M 129.457 19.725 L 129.457 0 L 140.107 0 L 140.107 55.5 L 129.457 55.5 L 129.457 49.35 Q 127.507 52.425 123.982 54.3 Q 120.457 56.175 115.807 56.175 Q 110.557 56.175 106.207 53.475 Q 101.857 50.775 99.345 45.863 Q 96.832 40.95 96.832 34.575 Q 96.832 28.275 99.345 23.4 Q 101.857 18.525 106.207 15.9 Q 110.557 13.275 115.882 13.275 Q 119.932 13.275 123.607 15.038 Q 127.282 16.8 129.457 19.725 Z M 129.532 34.725 Q 129.532 30.9 128.032 28.163 Q 126.532 25.425 123.982 23.963 Q 121.432 22.5 118.507 22.5 Q 115.582 22.5 113.107 23.925 Q 110.632 25.35 109.095 28.088 Q 107.557 30.825 107.557 34.575 Q 107.557 38.325 109.095 41.138 Q 110.632 43.95 113.145 45.45 Q 115.657 46.95 118.507 46.95 Q 121.432 46.95 123.982 45.488 Q 126.532 44.025 128.032 41.288 Q 129.532 38.55 129.532 34.725 Z M 421.057 19.725 L 421.057 0 L 431.707 0 L 431.707 55.5 L 421.057 55.5 L 421.057 49.35 Q 419.107 52.425 415.582 54.3 Q 412.057 56.175 407.407 56.175 Q 402.157 56.175 397.807 53.475 Q 393.457 50.775 390.945 45.863 Q 388.432 40.95 388.432 34.575 Q 388.432 28.275 390.945 23.4 Q 393.457 18.525 397.807 15.9 Q 402.157 13.275 407.482 13.275 Q 411.532 13.275 415.207 15.038 Q 418.882 16.8 421.057 19.725 Z M 421.132 34.725 Q 421.132 30.9 419.632 28.163 Q 418.132 25.425 415.582 23.963 Q 413.032 22.5 410.107 22.5 Q 407.182 22.5 404.707 23.925 Q 402.232 25.35 400.695 28.088 Q 399.157 30.825 399.157 34.575 Q 399.157 38.325 400.695 41.138 Q 402.232 43.95 404.745 45.45 Q 407.257 46.95 410.107 46.95 Q 413.032 46.95 415.582 45.488 Q 418.132 44.025 419.632 41.288 Q 421.132 38.55 421.132 34.725 Z M 188.707 37.875 L 158.332 37.875 Q 158.707 42.375 161.482 44.925 Q 164.257 47.475 168.307 47.475 Q 174.157 47.475 176.632 42.45 L 187.957 42.45 Q 186.157 48.45 181.057 52.313 Q 175.957 56.175 168.532 56.175 Q 162.532 56.175 157.77 53.513 Q 153.007 50.85 150.345 45.975 Q 147.682 41.1 147.682 34.725 Q 147.682 28.275 150.307 23.4 Q 152.932 18.525 157.657 15.9 Q 162.382 13.275 168.532 13.275 Q 174.457 13.275 179.145 15.825 Q 183.832 18.375 186.42 23.063 Q 189.007 27.75 189.007 33.825 Q 189.007 36.075 188.707 37.875 Z M 158.407 30.825 L 178.132 30.825 Q 178.057 26.775 175.207 24.338 Q 172.357 21.9 168.232 21.9 Q 164.332 21.9 161.67 24.263 Q 159.007 26.625 158.407 30.825 Z M 501.157 37.875 L 470.782 37.875 Q 471.157 42.375 473.932 44.925 Q 476.707 47.475 480.757 47.475 Q 486.607 47.475 489.082 42.45 L 500.407 42.45 Q 498.607 48.45 493.507 52.313 Q 488.407 56.175 480.982 56.175 Q 474.982 56.175 470.22 53.513 Q 465.457 50.85 462.795 45.975 Q 460.132 41.1 460.132 34.725 Q 460.132 28.275 462.757 23.4 Q 465.382 18.525 470.107 15.9 Q 474.832 13.275 480.982 13.275 Q 486.907 13.275 491.595 15.825 Q 496.282 18.375 498.87 23.063 Q 501.457 27.75 501.457 33.825 Q 501.457 36.075 501.157 37.875 Z M 470.857 30.825 L 490.582 30.825 Q 490.507 26.775 487.657 24.338 Q 484.807 21.9 480.682 21.9 Q 476.782 21.9 474.12 24.263 Q 471.457 26.625 470.857 30.825 Z M 331.432 56.175 Q 325.432 56.175 320.632 53.513 Q 315.832 50.85 313.095 45.975 Q 310.357 41.1 310.357 34.725 Q 310.357 28.35 313.17 23.475 Q 315.982 18.6 320.857 15.938 Q 325.732 13.275 331.732 13.275 Q 337.732 13.275 342.607 15.938 Q 347.482 18.6 350.295 23.475 Q 353.107 28.35 353.107 34.725 Q 353.107 41.1 350.22 45.975 Q 347.332 50.85 342.42 53.513 Q 337.507 56.175 331.432 56.175 Z M 331.432 47.025 Q 334.282 47.025 336.795 45.638 Q 339.307 44.25 340.807 41.475 Q 342.307 38.7 342.307 34.725 A 13.292 13.292 0 0 0 340.008 26.563 A 9.563 9.563 0 0 0 339.195 25.612 Q 336.082 22.425 331.582 22.425 Q 327.082 22.425 324.045 25.613 A 12.235 12.235 0 0 0 321.022 33.905 A 22.018 22.018 0 0 0 321.007 34.725 A 13.949 13.949 0 0 0 323.077 42.718 A 9.478 9.478 0 0 0 323.97 43.838 Q 326.932 47.025 331.432 47.025 Z M 219.907 13.35 L 219.907 24.375 L 217.132 24.375 A 11.527 11.527 0 0 0 210.424 26.092 A 7.12 7.12 0 0 0 209.67 26.7 A 8.807 8.807 0 0 0 207.286 32.36 A 21.596 21.596 0 0 0 207.157 34.8 L 207.157 55.5 L 196.657 55.5 L 196.657 13.95 L 207.157 13.95 L 207.157 20.4 Q 209.182 17.1 212.445 15.225 Q 215.707 13.35 219.907 13.35 Z M 384.082 13.35 L 384.082 24.375 L 381.307 24.375 A 11.527 11.527 0 0 0 374.599 26.092 A 7.12 7.12 0 0 0 373.845 26.7 A 8.807 8.807 0 0 0 371.461 32.36 A 21.596 21.596 0 0 0 371.332 34.8 L 371.332 55.5 L 360.832 55.5 L 360.832 13.95 L 371.332 13.95 L 371.332 20.4 Q 373.357 17.1 376.62 15.225 Q 379.882 13.35 384.082 13.35 Z M 441.982 0 L 452.482 0 L 452.482 55.5 L 441.982 55.5 L 441.982 0 Z"/></g></svg>